<svg width="17" height="17" viewBox="0 0 17 17" fill="none" xmlns="http://www.w3.org/2000/svg">
<path fill-rule="evenodd" clip-rule="evenodd" d="M7.36667 12.0102C7.67963 12.0102 7.93333 12.2725 7.93333 12.5961V14.8902C11.0486 13.009 12.9229 11.6782 14.0532 10.5162C14.7092 9.8419 15.07 9.26686 15.2796 8.71854C15.4903 8.1672 15.5833 7.5512 15.5833 6.73745C15.5833 3.82537 13.3 1.46466 10.4833 1.46466H6.51667C3.70001 1.46466 1.41667 3.82537 1.41667 6.73745C1.41667 9.64953 3.70001 12.0102 6.51667 12.0102H7.36667ZM7.93333 16.5833C15.486 12.0896 17 10.249 17 6.73745C17 3.01646 14.0824 0 10.4833 0H6.51667C2.91761 0 0 3.01646 0 6.73745C0 10.4584 2.91761 13.4749 6.51667 13.4749V16.4143C6.51667 16.8625 6.98356 17.1446 7.3602 16.9226C7.55501 16.8079 7.74603 16.6948 7.93333 16.5833Z" fill="white"/>
</svg>
