<svg width="20" height="18" viewBox="0 0 20 18" fill="none" xmlns="http://www.w3.org/2000/svg">
<path d="M7.57804 0.456335L8.03273 0.683668C8.78263 1.0586 9.39068 1.66663 9.76563 2.41649C9.84079 2.5668 10.0553 2.5668 10.1305 2.41649C10.5054 1.66663 11.1135 1.0586 11.8634 0.683668L12.318 0.456335C13.241 -0.00510451 14.2985 -0.121189 15.2996 0.129062C16.2627 0.369835 17.1136 0.934786 17.7093 1.72897L17.9645 2.06922C18.6811 3.02477 19.0686 4.18698 19.0686 5.38141V5.76142C19.0686 6.30598 19.0018 6.84849 18.8697 7.37679L18.7807 7.73271C18.4691 8.97924 17.9114 10.1509 17.1404 11.1788L16.6219 11.8701C16.2267 12.397 15.7946 12.8952 15.3289 13.3609L14.8031 13.8867C13.601 15.0887 12.2131 16.089 10.6926 16.8492C10.2239 17.0836 9.6722 17.0836 9.2035 16.8492C7.68302 16.089 6.29505 15.0887 5.09301 13.8867L4.56719 13.3609C4.10145 12.8952 3.66934 12.397 3.27414 11.8701L2.75569 11.1788C1.98472 10.1509 1.42702 8.97924 1.11537 7.73271L1.02638 7.37679C0.894303 6.84849 0.827515 6.30598 0.827515 5.76142V5.38141C0.827515 4.18698 1.21494 3.02477 1.93163 2.06922L2.18682 1.72897C2.78249 0.934786 3.63339 0.369835 4.59653 0.129062C5.59757 -0.121189 6.65512 -0.00510451 7.57804 0.456335Z" fill="#CE395F"/>
</svg>
