<svg width="18" height="18" viewBox="0 0 18 18" fill="none" xmlns="http://www.w3.org/2000/svg">
<path fill-rule="evenodd" clip-rule="evenodd" d="M0.21967 0.21967C0.512563 -0.0732233 0.987437 -0.0732233 1.28033 0.21967L7.5 6.43934V2.75C7.5 2.33579 7.83579 2 8.25 2C8.66421 2 9 2.33579 9 2.75V8.5C9 8.77614 8.77614 9 8.5 9H2.75C2.33579 9 2 8.66421 2 8.25C2 7.83579 2.33579 7.5 2.75 7.5H6.43934L0.21967 1.28033C-0.0732233 0.987437 -0.0732233 0.512563 0.21967 0.21967ZM10.5 3.75C10.5 3.33579 10.8358 3 11.25 3H14.75C16.2688 3 17.5 4.23122 17.5 5.75V14.75C17.5 16.2688 16.2688 17.5 14.75 17.5H5.75C4.23122 17.5 3 16.2688 3 14.75V11.25C3 10.8358 3.33579 10.5 3.75 10.5C4.16421 10.5 4.5 10.8358 4.5 11.25V14.75C4.5 15.4404 5.05964 16 5.75 16H14.75C15.4404 16 16 15.4404 16 14.75V5.75C16 5.05964 15.4404 4.5 14.75 4.5H11.25C10.8358 4.5 10.5 4.16421 10.5 3.75Z" fill="white"/>
</svg>
