<svg width="23" height="18" viewBox="0 0 23 18" fill="none" xmlns="http://www.w3.org/2000/svg">
<path fill-rule="evenodd" clip-rule="evenodd" d="M5.18666 0.964155C4.83048 0.607976 4.253 0.607977 3.89682 0.964156L0.749156 4.11182C0.333615 4.52736 0.333615 5.20109 0.749156 5.61663C1.1647 6.03217 1.83842 6.03217 2.25397 5.61663L3.47768 4.39292V12.7687C3.47768 15.0354 5.31521 16.8729 7.58191 16.8729H12.4462C13.0339 16.8729 13.5103 16.3965 13.5103 15.8089C13.5103 15.2212 13.0339 14.7448 12.4462 14.7448H7.58191C6.49054 14.7448 5.6058 13.8601 5.6058 12.7687V4.39292L6.82951 5.61663C7.24505 6.03217 7.91878 6.03217 8.33432 5.61663C8.74986 5.20109 8.74986 4.52736 8.33432 4.11182L5.18666 0.964155ZM10.7741 0.911948C10.1864 0.911948 9.71004 1.38835 9.71004 1.97601C9.71004 2.56367 10.1864 3.04007 10.7741 3.04007H15.6384C16.7298 3.04007 17.6145 3.92481 17.6145 5.01618V13.3919L16.3908 12.1682C15.9752 11.7527 15.3015 11.7527 14.886 12.1682C14.4704 12.5838 14.4704 13.2575 14.886 13.673L18.0336 16.8207C18.3898 17.1769 18.9673 17.1769 19.3235 16.8207L22.4711 13.673C22.8867 13.2575 22.8867 12.5838 22.4711 12.1682C22.0556 11.7527 21.3819 11.7527 20.9663 12.1682L19.7426 13.3919V5.01618C19.7426 2.74948 17.9051 0.911948 15.6384 0.911948H10.7741Z" fill="#59BC6C"/>
</svg>
