<svg width="18" height="17" viewBox="0 0 18 17" fill="none" xmlns="http://www.w3.org/2000/svg">
<path fill-rule="evenodd" clip-rule="evenodd" d="M8.60588 0.168196C8.82354 -0.056065 9.17646 -0.0560653 9.39412 0.168195L13.3943 4.2895C13.6664 4.56982 13.6664 5.02432 13.3943 5.30465C13.1222 5.58497 12.6811 5.58497 12.409 5.30465L9.69672 2.51025V11.1139C9.69672 11.5103 9.38479 11.8317 9 11.8317C8.61521 11.8317 8.30328 11.5103 8.30328 11.1139V2.51025L5.59102 5.30465C5.31893 5.58497 4.87779 5.58497 4.6057 5.30465C4.33362 5.02432 4.33362 4.56982 4.6057 4.2895L8.60588 0.168196ZM1.19672 9.24755C1.58151 9.24755 1.89344 9.56893 1.89344 9.96537V14.5594C1.89344 15.1144 2.33015 15.5644 2.86885 15.5644H15.1311C15.6699 15.5644 16.1066 15.1144 16.1066 14.5594V9.96537C16.1066 9.56893 16.4185 9.24755 16.8033 9.24755C17.1881 9.24755 17.5 9.56893 17.5 9.96537V14.5594C17.5 15.9073 16.4394 17 15.1311 17H2.86885C1.56057 17 0.5 15.9073 0.5 14.5594V9.96537C0.5 9.56893 0.811933 9.24755 1.19672 9.24755Z" fill="white"/>
</svg>
